<?xml version="1.0" encoding="UTF-8" standalone="no"?>
<!-- Created with Inkscape (http://www.inkscape.org/) -->

<svg
   xmlns:dc="http://purl.org/dc/elements/1.1/"
   xmlns:cc="http://creativecommons.org/ns#"
   xmlns:rdf="http://www.w3.org/1999/02/22-rdf-syntax-ns#"
   xmlns:svg="http://www.w3.org/2000/svg"
   xmlns="http://www.w3.org/2000/svg"
   version="1.0"
   width="480"
   height="460"
   id="svg2">
  <metadata
     id="metadata2112">
    <rdf:RDF>
      <cc:Work
         rdf:about="">
        <dc:format>image/svg+xml</dc:format>
        <dc:type
           rdf:resource="http://purl.org/dc/dcmitype/StillImage" />
        <dc:title></dc:title>
      </cc:Work>
    </rdf:RDF>
  </metadata>
  <defs
     id="defs2102">
    <clipPath
       id="cp3">
      <polygon
         points="73,203.563 95,203.563 95,190 73,190 73,190 "
         id="polygon1797" />
    </clipPath>
    <clipPath
       id="cp5">
      <polygon
         points="73,203.563 95,203.563 95,190 73,190 73,190 "
         id="polygon1821" />
    </clipPath>
    <clipPath
       id="cp7">
      <polygon
         points="73,203.563 88,203.563 88,190 73,190 73,190 "
         id="polygon1845" />
    </clipPath>
    <clipPath
       id="cp9">
      <polygon
         points="73,203.563 88,203.563 88,190 73,190 73,190 "
         id="polygon1867" />
    </clipPath>
    <clipPath
       id="cp10">
      <polygon
         points="74,364 434,364 434,13 74,13 74,13 "
         id="polygon1874" />
    </clipPath>
    <clipPath
       id="cp11">
      <polygon
         points="73,203.563 88,203.563 88,190 73,190 73,190 "
         id="polygon1889" />
    </clipPath>
    <clipPath
       id="cp13">
      <polygon
         points="74,204 95,204 95,190 74,190 74,190 "
         id="polygon1907" />
    </clipPath>
    <clipPath
       id="cp15">
      <polygon
         points="74,204 95,204 95,190 74,190 74,190 "
         id="polygon1931" />
    </clipPath>
    <clipPath
       id="cp17">
      <polygon
         points="73,204 88,204 88,190 73,190 73,190 "
         id="polygon1955" />
    </clipPath>
    <clipPath
       id="cp19">
      <polygon
         points="73,204 88,204 88,190 73,190 73,190 "
         id="polygon1977" />
    </clipPath>
    <clipPath
       id="cp21">
      <polygon
         points="73,204 88,204 88,190 73,190 73,190 "
         id="polygon1999" />
    </clipPath>
  </defs>
  <g
     transform="matrix(1.364137,0,0,1.406645,-19.376016,57.579514)"
     clip-path="url(#cp3)"
     id="g8871">
    <clipPath
       id="clipPath9201">
      <polygon
         points="73,140 87,140 87,126 73,126 73,126 "
         id="polygon8874" />
    </clipPath>
    <text
       x="74"
       y="137"
       id="text8876"
       style="font-size:10px;fill:#000000;font-family:SVGTimes">-</text>
    <text
       x="80.5"
       y="137"
       id="text8878"
       style="font-size:10px;fill:#000000;font-family:Times New Roman">3</text>
  </g>
  <g
     transform="matrix(1.364137,0,0,1.406645,58.936361,57.579514)"
     clip-path="url(#cp5)"
     id="g8895">
    <clipPath
       id="clipPath9216">
      <polygon
         points="73,140 87,140 87,126 73,126 73,126 "
         id="polygon8898" />
    </clipPath>
    <text
       x="74"
       y="137"
       id="text8900"
       style="font-size:10px;fill:#000000;font-family:SVGTimes">-</text>
    <text
       x="80.5"
       y="137"
       id="text8902"
       style="font-size:10px;fill:#000000;font-family:Times New Roman">2</text>
  </g>
  <g
     transform="matrix(1.364137,0,0,1.406645,137.24874,57.579514)"
     clip-path="url(#cp7)"
     id="g8919">
    <clipPath
       id="clipPath9231">
      <polygon
         points="73,140 87,140 87,126 73,126 73,126 "
         id="polygon8922" />
    </clipPath>
    <text
       x="74"
       y="137"
       id="text8924"
       style="font-size:10px;fill:#000000;font-family:SVGTimes">-</text>
    <text
       x="80.5"
       y="137"
       id="text8926"
       style="font-size:10px;fill:#000000;font-family:Times New Roman">1</text>
  </g>
  <g
     transform="matrix(1.364137,0,0,1.406645,-21.116655,57.614261)"
     clip-path="url(#cp9)"
     id="g8943">
    <clipPath
       id="clipPath9246">
      <polygon
         points="74,236 434,236 434,13 74,13 74,13 "
         id="polygon8946" />
    </clipPath>
    <polyline
       style="fill:none;stroke:#000000;stroke-width:0.13535678px;stroke-opacity:1"
       id="polyline8948"
       points="265,124 265,121.563 " />
    <polyline
       style="fill:none;stroke:#000000;stroke-width:0.13535678px;stroke-opacity:1"
       id="polyline8950"
       points="276.438,124 276.438,121.563 " />
    <polyline
       style="fill:none;stroke:#000000;stroke-width:0.13535678px;stroke-opacity:1"
       id="polyline8952"
       points="287.938,124 287.938,121.563 " />
    <polyline
       style="fill:none;stroke:#000000;stroke-width:0.13535678px;stroke-opacity:1"
       id="polyline8954"
       points="299.438,124 299.438,121.563 " />
    <polyline
       style="fill:none;stroke:#000000;stroke-width:0.13535678px;stroke-opacity:1"
       id="polyline8956"
       points="310.938,124 310.938,120 " />
  </g>
  <g
     transform="matrix(1.364137,0,0,1.406645,298.64797,57.579514)"
     clip-path="url(#cp10)"
     id="g8958">
    <clipPath
       id="clipPath9255">
      <polygon
         points="73,140 80,140 80,126 73,126 73,126 "
         id="polygon8961" />
    </clipPath>
  </g>
  <g
     transform="matrix(1.364137,0,0,1.406645,-21.116655,57.614261)"
     clip-path="url(#cp11)"
     id="g8965">
    <clipPath
       id="clipPath9260">
      <polygon
         points="74,236 434,236 434,13 74,13 74,13 "
         id="polygon8968" />
    </clipPath>
    <polyline
       style="fill:none;stroke:#000000;stroke-width:0.13535678px;stroke-opacity:1"
       id="polyline8970"
       points="322.375,124 322.375,121.563 " />
    <polyline
       style="fill:none;stroke:#000000;stroke-width:0.13535678px;stroke-opacity:1"
       id="polyline8972"
       points="333.875,124 333.875,121.563 " />
    <polyline
       style="fill:none;stroke:#000000;stroke-width:0.13535678px;stroke-opacity:1"
       id="polyline8974"
       points="345.375,124 345.375,121.563 " />
    <polyline
       style="fill:none;stroke:#000000;stroke-width:0.13535678px;stroke-opacity:1"
       id="polyline8976"
       points="356.813,124 356.813,121.563 " />
    <polyline
       style="fill:none;stroke:#000000;stroke-width:0.13535678px;stroke-opacity:1"
       id="polyline8978"
       points="368.313,124 368.313,120 " />
  </g>
  <g
     transform="matrix(1.364137,0,0,1.406645,-21.116655,57.614261)"
     clip-path="url(#cp13)"
     id="g8987">
    <clipPath
       id="clipPath9274">
      <polygon
         points="74,236 434,236 434,13 74,13 74,13 "
         id="polygon8990" />
    </clipPath>
    <polyline
       style="fill:none;stroke:#000000;stroke-width:0.13535678px;stroke-opacity:1"
       id="polyline8992"
       points="379.813,124 379.813,121.563 " />
    <polyline
       style="fill:none;stroke:#000000;stroke-width:0.13535678px;stroke-opacity:1"
       id="polyline8994"
       points="391.25,124 391.25,121.563 " />
    <polyline
       style="fill:none;stroke:#000000;stroke-width:0.13535678px;stroke-opacity:1"
       id="polyline8996"
       points="402.75,124 402.75,121.563 " />
    <polyline
       style="fill:none;stroke:#000000;stroke-width:0.13535678px;stroke-opacity:1"
       id="polyline8998"
       points="414.25,124 414.25,121.563 " />
    <polyline
       style="fill:none;stroke:#000000;stroke-width:0.13535678px;stroke-opacity:1"
       id="polyline9000"
       points="425.75,124 425.75,120 " />
  </g>
  <g
     transform="matrix(1.364137,0,0,1.406645,-21.116655,57.614261)"
     clip-path="url(#cp17)"
     id="g9029">
    <clipPath
       id="clipPath9301">
      <polygon
         points="74,236 434,236 434,13 74,13 74,13 "
         id="polygon9032" />
    </clipPath>
    <polyline
       style="fill:none;stroke:#000000;stroke-width:0.13535678px;stroke-opacity:1"
       id="polyline9034"
       points="253.5,219.5 255.875,219.5 " />
    <polyline
       style="fill:none;stroke:#000000;stroke-width:0.13535678px;stroke-opacity:1"
       id="polyline9036"
       points="253.5,212.688 255.875,212.688 " />
    <polyline
       style="fill:none;stroke:#000000;stroke-width:0.13535678px;stroke-opacity:1"
       id="polyline9038"
       points="253.5,205.875 255.875,205.875 " />
    <polyline
       style="fill:none;stroke:#000000;stroke-width:0.13535678px;stroke-opacity:1"
       id="polyline9040"
       points="253.5,199 255.875,199 " />
    <polyline
       style="fill:none;stroke:#000000;stroke-width:0.13535678px;stroke-opacity:1"
       id="polyline9042"
       points="253.5,192.188 257.5,192.188 " />
  </g>
  <g
     transform="matrix(1.364137,0,0,1.406645,-21.116655,57.614261)"
     clip-path="url(#cp19)"
     id="g9053">
    <clipPath
       id="clipPath9316">
      <polygon
         points="74,236 434,236 434,13 74,13 74,13 "
         id="polygon9056" />
    </clipPath>
    <polyline
       style="fill:none;stroke:#000000;stroke-width:0.13535678px;stroke-opacity:1"
       id="polyline9058"
       points="253.5,185.375 255.875,185.375 " />
    <polyline
       style="fill:none;stroke:#000000;stroke-width:0.13535678px;stroke-opacity:1"
       id="polyline9060"
       points="253.5,178.563 255.875,178.563 " />
    <polyline
       style="fill:none;stroke:#000000;stroke-width:0.13535678px;stroke-opacity:1"
       id="polyline9062"
       points="253.5,171.75 255.875,171.75 " />
    <polyline
       style="fill:none;stroke:#000000;stroke-width:0.13535678px;stroke-opacity:1"
       id="polyline9064"
       points="253.5,164.938 255.875,164.938 " />
    <polyline
       style="fill:none;stroke:#000000;stroke-width:0.13535678px;stroke-opacity:1"
       id="polyline9066"
       points="253.5,158.063 257.5,158.063 " />
  </g>
  <g
     transform="matrix(1.364137,0,0,1.406645,-21.116655,57.614261)"
     clip-path="url(#cp21)"
     id="g9077">
    <clipPath
       id="clipPath9331">
      <polygon
         points="74,236 434,236 434,13 74,13 74,13 "
         id="polygon9080" />
    </clipPath>
    <polyline
       style="fill:none;stroke:#000000;stroke-width:0.13535678px;stroke-opacity:1"
       id="polyline9082"
       points="253.5,151.25 255.875,151.25 " />
    <polyline
       style="fill:none;stroke:#000000;stroke-width:0.13535678px;stroke-opacity:1"
       id="polyline9084"
       points="253.5,144.438 255.875,144.438 " />
    <polyline
       style="fill:none;stroke:#000000;stroke-width:0.13535678px;stroke-opacity:1"
       id="polyline9086"
       points="253.5,137.625 255.875,137.625 " />
    <polyline
       style="fill:none;stroke:#000000;stroke-width:0.13535678px;stroke-opacity:1"
       id="polyline9088"
       points="253.5,130.813 255.875,130.813 " />
    <polyline
       style="fill:none;stroke:#000000;stroke-width:0.13535678px;stroke-opacity:1"
       id="polyline9090"
       points="253.5,124 257.5,124 " />
  </g>
  <g
     transform="translate(714,63)"
     clip-path="url(#cp3)"
     id="g10133">
    <clipPath
       id="clipPath10481">
      <polygon
         points="74,236 434,236 434,13 74,13 74,13 "
         id="polygon10136" />
    </clipPath>
    <polyline
       style="fill:none;stroke:#000000;stroke-width:0.1875px;stroke-opacity:1"
       id="polyline10138"
       points="83.9375,124 83.9375,121.563 " />
    <polyline
       style="fill:none;stroke:#000000;stroke-width:0.1875px;stroke-opacity:1"
       id="polyline10140"
       points="94.5,124 94.5,120 " />
  </g>
  <g
     transform="translate(714,63)"
     clip-path="url(#cp5)"
     id="g10151">
    <clipPath
       id="clipPath10493">
      <polygon
         points="74,236 434,236 434,13 74,13 74,13 "
         id="polygon10154" />
    </clipPath>
    <polyline
       style="fill:none;stroke:#000000;stroke-width:0.1875px;stroke-opacity:1"
       id="polyline10156"
       points="105.125,124 105.125,121.563 " />
    <polyline
       style="fill:none;stroke:#000000;stroke-width:0.1875px;stroke-opacity:1"
       id="polyline10158"
       points="115.75,124 115.75,121.563 " />
    <polyline
       style="fill:none;stroke:#000000;stroke-width:0.1875px;stroke-opacity:1"
       id="polyline10160"
       points="126.313,124 126.313,121.563 " />
    <polyline
       style="fill:none;stroke:#000000;stroke-width:0.1875px;stroke-opacity:1"
       id="polyline10162"
       points="136.938,124 136.938,121.563 " />
    <polyline
       style="fill:none;stroke:#000000;stroke-width:0.1875px;stroke-opacity:1"
       id="polyline10164"
       points="147.5,124 147.5,120 " />
  </g>
  <g
     transform="translate(714,63)"
     clip-path="url(#cp7)"
     id="g10175">
    <clipPath
       id="clipPath10508">
      <polygon
         points="74,236 434,236 434,13 74,13 74,13 "
         id="polygon10178" />
    </clipPath>
    <polyline
       style="fill:none;stroke:#000000;stroke-width:0.1875px;stroke-opacity:1"
       id="polyline10180"
       points="158.125,124 158.125,121.563 " />
    <polyline
       style="fill:none;stroke:#000000;stroke-width:0.1875px;stroke-opacity:1"
       id="polyline10182"
       points="168.688,124 168.688,121.563 " />
    <polyline
       style="fill:none;stroke:#000000;stroke-width:0.1875px;stroke-opacity:1"
       id="polyline10184"
       points="179.313,124 179.313,121.563 " />
    <polyline
       style="fill:none;stroke:#000000;stroke-width:0.1875px;stroke-opacity:1"
       id="polyline10186"
       points="189.938,124 189.938,121.563 " />
    <polyline
       style="fill:none;stroke:#000000;stroke-width:0.1875px;stroke-opacity:1"
       id="polyline10188"
       points="200.5,124 200.5,120 " />
  </g>
  <g
     transform="translate(714,63)"
     clip-path="url(#cp9)"
     id="g10199">
    <clipPath
       id="clipPath10523">
      <polygon
         points="74,236 434,236 434,13 74,13 74,13 "
         id="polygon10202" />
    </clipPath>
    <polyline
       style="fill:none;stroke:#000000;stroke-width:0.1875px;stroke-opacity:1"
       id="polyline10204"
       points="211.125,124 211.125,121.563 " />
    <polyline
       style="fill:none;stroke:#000000;stroke-width:0.1875px;stroke-opacity:1"
       id="polyline10206"
       points="221.688,124 221.688,121.563 " />
    <polyline
       style="fill:none;stroke:#000000;stroke-width:0.1875px;stroke-opacity:1"
       id="polyline10208"
       points="232.313,124 232.313,121.563 " />
    <polyline
       style="fill:none;stroke:#000000;stroke-width:0.1875px;stroke-opacity:1"
       id="polyline10210"
       points="242.875,124 242.875,121.563 " />
    <polyline
       style="fill:none;stroke:#000000;stroke-width:0.1875px;stroke-opacity:1"
       id="polyline10212"
       points="253.5,124 253.5,120 " />
  </g>
  <g
     transform="translate(943.992,62.9753)"
     clip-path="url(#cp11)"
     id="g10229">
    <clipPath
       id="clipPath10541">
      <polygon
         points="73,140 80,140 80,126 73,126 73,126 "
         id="polygon10232" />
    </clipPath>
    <text
       x="74"
       y="137"
       id="text10234"
       style="font-size:10px;fill:#000000;font-family:Times New Roman">1</text>
  </g>
  <g
     transform="translate(996.984,62.9753)"
     clip-path="url(#cp13)"
     id="g10251">
    <clipPath
       id="clipPath10555">
      <polygon
         points="73,140 80,140 80,126 73,126 73,126 "
         id="polygon10254" />
    </clipPath>
    <text
       x="74"
       y="137"
       id="text10256"
       style="font-size:10px;fill:#000000;font-family:Times New Roman">2</text>
  </g>
  <g
     transform="translate(1049.976,62.9753)"
     clip-path="url(#cp15)"
     id="g10273">
    <clipPath
       id="clipPath10569">
      <polygon
         points="73,140 80,140 80,126 73,126 73,126 "
         id="polygon10276" />
    </clipPath>
    <text
       x="74"
       y="137"
       id="text10278"
       style="font-size:10px;fill:#000000;font-family:Times New Roman">3</text>
  </g>
  <g
     transform="translate(878.5,142.67554)"
     clip-path="url(#cp17)"
     id="g10297">
    <clipPath
       id="clipPath10584">
      <polygon
         points="73,140 87,140 87,126 73,126 73,126 "
         id="polygon10300" />
    </clipPath>
    <text
       x="74"
       y="137"
       id="text10302"
       style="font-size:10px;fill:#000000;font-family:SVGTimes">-</text>
    <text
       x="80.5"
       y="137"
       id="text10304"
       style="font-size:10px;fill:#000000;font-family:Times New Roman">3</text>
  </g>
  <g
     transform="translate(878.5,113.10879)"
     clip-path="url(#cp19)"
     id="g10321">
    <clipPath
       id="clipPath10599">
      <polygon
         points="73,140 87,140 87,126 73,126 73,126 "
         id="polygon10324" />
    </clipPath>
    <text
       x="74"
       y="137"
       id="text10326"
       style="font-size:10px;fill:#000000;font-family:SVGTimes">-</text>
    <text
       x="80.5"
       y="137"
       id="text10328"
       style="font-size:10px;fill:#000000;font-family:Times New Roman">2</text>
  </g>
  <g
     transform="translate(878.5,83.54204)"
     clip-path="url(#cp21)"
     id="g10345">
    <clipPath
       id="clipPath10614">
      <polygon
         points="73,140 87,140 87,126 73,126 73,126 "
         id="polygon10348" />
    </clipPath>
    <text
       x="74"
       y="137"
       id="text10350"
       style="font-size:10px;fill:#000000;font-family:SVGTimes">-</text>
    <text
       x="80.5"
       y="137"
       id="text10352"
       style="font-size:10px;fill:#000000;font-family:Times New Roman">1</text>
  </g>
  <g
     id="layer1"
     style="display:inline">
    <g
       transform="matrix(-1,0,0,1,759,0)"
       id="use4458">
      <g
         transform="translate(0,-120.5)"
         id="g3645"
         style="fill:none;stroke:#000000;stroke-opacity:1" />
    </g>
    <g
       transform="translate(98,0)"
       id="use4481"
       style="stroke:#000000;stroke-opacity:1">
      <path
         d="m 116.5,10 0,10"
         id="path3738"
         style="fill:none;stroke:#000000;stroke-width:1;stroke-miterlimit:4;stroke-opacity:1;stroke-dasharray:none;stroke-dashoffset:0" />
      <path
         d="m 139.5,10 0,5"
         id="path3740"
         style="fill:none;stroke:#000000;stroke-width:1;stroke-miterlimit:4;stroke-opacity:1;stroke-dasharray:none;stroke-dashoffset:0" />
      <path
         d="m 94.5,10 0,5"
         id="path3742"
         style="fill:none;stroke:#000000;stroke-width:1;stroke-miterlimit:4;stroke-opacity:1;stroke-dasharray:none;stroke-dashoffset:0" />
    </g>
    <g
       transform="translate(188,0)"
       id="use4483"
       style="stroke:#000000;stroke-opacity:1">
      <path
         d="m 116.5,10 0,10"
         id="path3730"
         style="fill:none;stroke:#000000;stroke-width:1;stroke-miterlimit:4;stroke-opacity:1;stroke-dasharray:none;stroke-dashoffset:0" />
      <path
         d="m 139.5,10 0,5"
         id="path3732"
         style="fill:none;stroke:#000000;stroke-width:1;stroke-miterlimit:4;stroke-opacity:1;stroke-dasharray:none;stroke-dashoffset:0" />
      <path
         d="m 94.5,10 0,5"
         id="path3734"
         style="fill:none;stroke:#000000;stroke-width:1;stroke-miterlimit:4;stroke-opacity:1;stroke-dasharray:none;stroke-dashoffset:0" />
    </g>
    <g
       transform="translate(278,0)"
       id="use4485"
       style="stroke:#000000;stroke-opacity:1">
      <path
         d="m 116.5,10 0,10"
         id="path3722"
         style="fill:none;stroke:#000000;stroke-width:1;stroke-miterlimit:4;stroke-opacity:1;stroke-dasharray:none;stroke-dashoffset:0" />
      <path
         d="m 139.5,10 0,5"
         id="path3724"
         style="fill:none;stroke:#000000;stroke-width:1;stroke-miterlimit:4;stroke-opacity:1;stroke-dasharray:none;stroke-dashoffset:0" />
      <path
         d="m 94.5,10 0,5"
         id="path3726"
         style="fill:none;stroke:#000000;stroke-width:1;stroke-miterlimit:4;stroke-opacity:1;stroke-dasharray:none;stroke-dashoffset:0" />
    </g>
    <g
       transform="matrix(1,0,0,-1,1,420)"
       id="use4514">
      <g
         transform="translate(8,0)"
         id="g3622"
         style="stroke:#000000;stroke-opacity:1">
        <path
           d="m 116.5,10 0,10"
           id="path3624"
           style="fill:none;stroke:#000000;stroke-width:1;stroke-miterlimit:4;stroke-opacity:1;stroke-dasharray:none;stroke-dashoffset:0" />
        <path
           d="m 139.5,10 0,5"
           id="path3626"
           style="fill:none;stroke:#000000;stroke-width:1;stroke-miterlimit:4;stroke-opacity:1;stroke-dasharray:none;stroke-dashoffset:0" />
        <path
           d="m 94.5,10 0,5"
           id="path3628"
           style="fill:none;stroke:#000000;stroke-width:1;stroke-miterlimit:4;stroke-opacity:1;stroke-dasharray:none;stroke-dashoffset:0" />
      </g>
      <g
         transform="translate(98,0)"
         id="use3630"
         style="stroke:#000000;stroke-opacity:1">
        <path
           d="m 116.5,10 0,10"
           id="path3698"
           style="fill:none;stroke:#000000;stroke-width:1;stroke-miterlimit:4;stroke-opacity:1;stroke-dasharray:none;stroke-dashoffset:0" />
        <path
           d="m 139.5,10 0,5"
           id="path3700"
           style="fill:none;stroke:#000000;stroke-width:1;stroke-miterlimit:4;stroke-opacity:1;stroke-dasharray:none;stroke-dashoffset:0" />
        <path
           d="m 94.5,10 0,5"
           id="path3702"
           style="fill:none;stroke:#000000;stroke-width:1;stroke-miterlimit:4;stroke-opacity:1;stroke-dasharray:none;stroke-dashoffset:0" />
      </g>
      <g
         transform="translate(188,0)"
         id="use3632"
         style="stroke:#000000;stroke-opacity:1">
        <path
           d="m 116.5,10 0,10"
           id="path3706"
           style="fill:none;stroke:#000000;stroke-width:1;stroke-miterlimit:4;stroke-opacity:1;stroke-dasharray:none;stroke-dashoffset:0" />
        <path
           d="m 139.5,10 0,5"
           id="path3708"
           style="fill:none;stroke:#000000;stroke-width:1;stroke-miterlimit:4;stroke-opacity:1;stroke-dasharray:none;stroke-dashoffset:0" />
        <path
           d="m 94.5,10 0,5"
           id="path3710"
           style="fill:none;stroke:#000000;stroke-width:1;stroke-miterlimit:4;stroke-opacity:1;stroke-dasharray:none;stroke-dashoffset:0" />
      </g>
      <g
         transform="translate(278,0)"
         id="use3634"
         style="stroke:#000000;stroke-opacity:1">
        <path
           d="m 116.5,10 0,10"
           id="path3714"
           style="fill:none;stroke:#000000;stroke-width:1;stroke-miterlimit:4;stroke-opacity:1;stroke-dasharray:none;stroke-dashoffset:0" />
        <path
           d="m 139.5,10 0,5"
           id="path3716"
           style="fill:none;stroke:#000000;stroke-width:1;stroke-miterlimit:4;stroke-opacity:1;stroke-dasharray:none;stroke-dashoffset:0" />
        <path
           d="m 94.5,10 0,5"
           id="path3718"
           style="fill:none;stroke:#000000;stroke-width:1;stroke-miterlimit:4;stroke-opacity:1;stroke-dasharray:none;stroke-dashoffset:0" />
      </g>
    </g>
    <g
       transform="matrix(0,-1,1,0,50.5,371)"
       id="use19708"
       style="stroke:#000000;stroke-opacity:1">
      <path
         d="m 116.5,10 0,10"
         id="path3690"
         style="fill:none;stroke:#000000;stroke-width:1;stroke-miterlimit:4;stroke-opacity:1;stroke-dasharray:none;stroke-dashoffset:0" />
      <path
         d="m 139.5,10 0,5"
         id="path3692"
         style="fill:none;stroke:#000000;stroke-width:1;stroke-miterlimit:4;stroke-opacity:1;stroke-dasharray:none;stroke-dashoffset:0" />
      <path
         d="m 94.5,10 0,5"
         id="path3694"
         style="fill:none;stroke:#000000;stroke-width:1;stroke-miterlimit:4;stroke-opacity:1;stroke-dasharray:none;stroke-dashoffset:0" />
    </g>
    <g
       transform="matrix(0,-1,1,0,50.5,281)"
       id="use19710"
       style="stroke:#000000;stroke-opacity:1">
      <path
         d="m 116.5,10 0,10"
         id="path3682"
         style="fill:none;stroke:#000000;stroke-width:1;stroke-miterlimit:4;stroke-opacity:1;stroke-dasharray:none;stroke-dashoffset:0" />
      <path
         d="m 139.5,10 0,5"
         id="path3684"
         style="fill:none;stroke:#000000;stroke-width:1;stroke-miterlimit:4;stroke-opacity:1;stroke-dasharray:none;stroke-dashoffset:0" />
      <path
         d="m 94.5,10 0,5"
         id="path3686"
         style="fill:none;stroke:#000000;stroke-width:1;stroke-miterlimit:4;stroke-opacity:1;stroke-dasharray:none;stroke-dashoffset:0" />
    </g>
    <g
       transform="matrix(0,-1,1,0,50.5,191)"
       id="use19712"
       style="stroke:#000000;stroke-opacity:1">
      <path
         d="m 116.5,10 0,10"
         id="path3674"
         style="fill:none;stroke:#000000;stroke-width:1;stroke-miterlimit:4;stroke-opacity:1;stroke-dasharray:none;stroke-dashoffset:0" />
      <path
         d="m 139.5,10 0,5"
         id="path3676"
         style="fill:none;stroke:#000000;stroke-width:1;stroke-miterlimit:4;stroke-opacity:1;stroke-dasharray:none;stroke-dashoffset:0" />
      <path
         d="m 94.5,10 0,5"
         id="path3678"
         style="fill:none;stroke:#000000;stroke-width:1;stroke-miterlimit:4;stroke-opacity:1;stroke-dasharray:none;stroke-dashoffset:0" />
    </g>
    <g
       transform="matrix(0,-1,-1,0,469.5,469)"
       id="use19730"
       style="display:inline">
      <g
         transform="translate(8,0)"
         id="g3599"
         style="stroke:#000000;stroke-opacity:1">
        <path
           d="m 116.5,10 0,10"
           id="path3601"
           style="fill:none;stroke:#000000;stroke-width:1;stroke-miterlimit:4;stroke-opacity:1;stroke-dasharray:none;stroke-dashoffset:0" />
        <path
           d="m 139.5,10 0,5"
           id="path3603"
           style="fill:none;stroke:#000000;stroke-width:1;stroke-miterlimit:4;stroke-opacity:1;stroke-dasharray:none;stroke-dashoffset:0" />
        <path
           d="m 94.5,10 0,5"
           id="path3605"
           style="fill:none;stroke:#000000;stroke-width:1;stroke-miterlimit:4;stroke-opacity:1;stroke-dasharray:none;stroke-dashoffset:0" />
      </g>
      <g
         transform="translate(98,0)"
         id="use3607"
         style="stroke:#000000;stroke-opacity:1">
        <path
           d="m 116.5,10 0,10"
           id="path3650"
           style="fill:none;stroke:#000000;stroke-width:1;stroke-miterlimit:4;stroke-opacity:1;stroke-dasharray:none;stroke-dashoffset:0" />
        <path
           d="m 139.5,10 0,5"
           id="path3652"
           style="fill:none;stroke:#000000;stroke-width:1;stroke-miterlimit:4;stroke-opacity:1;stroke-dasharray:none;stroke-dashoffset:0" />
        <path
           d="m 94.5,10 0,5"
           id="path3654"
           style="fill:none;stroke:#000000;stroke-width:1;stroke-miterlimit:4;stroke-opacity:1;stroke-dasharray:none;stroke-dashoffset:0" />
      </g>
      <g
         transform="translate(188,0)"
         id="use3609"
         style="stroke:#000000;stroke-opacity:1">
        <path
           d="m 116.5,10 0,10"
           id="path3658"
           style="fill:none;stroke:#000000;stroke-width:1;stroke-miterlimit:4;stroke-opacity:1;stroke-dasharray:none;stroke-dashoffset:0" />
        <path
           d="m 139.5,10 0,5"
           id="path3660"
           style="fill:none;stroke:#000000;stroke-width:1;stroke-miterlimit:4;stroke-opacity:1;stroke-dasharray:none;stroke-dashoffset:0" />
        <path
           d="m 94.5,10 0,5"
           id="path3662"
           style="fill:none;stroke:#000000;stroke-width:1;stroke-miterlimit:4;stroke-opacity:1;stroke-dasharray:none;stroke-dashoffset:0" />
      </g>
      <g
         transform="translate(278,0)"
         id="use3611"
         style="stroke:#000000;stroke-opacity:1">
        <path
           d="m 116.5,10 0,10"
           id="path3666"
           style="fill:none;stroke:#000000;stroke-width:1;stroke-miterlimit:4;stroke-opacity:1;stroke-dasharray:none;stroke-dashoffset:0" />
        <path
           d="m 139.5,10 0,5"
           id="path3668"
           style="fill:none;stroke:#000000;stroke-width:1;stroke-miterlimit:4;stroke-opacity:1;stroke-dasharray:none;stroke-dashoffset:0" />
        <path
           d="m 94.5,10 0,5"
           id="path3670"
           style="fill:none;stroke:#000000;stroke-width:1;stroke-miterlimit:4;stroke-opacity:1;stroke-dasharray:none;stroke-dashoffset:0" />
      </g>
    </g>
  </g>
  <g
     id="layer2"
     style="display:inline">
    <path
       d="m 143,318 a 0,0 0 1 1 0,0 0,0 0 1 1 0,0 z"
       id="path20350"
       style="fill:#204a87;fill-opacity:1;stroke:#204a87;stroke-width:1.5;stroke-miterlimit:4;stroke-opacity:1;stroke-dasharray:none;stroke-dashoffset:0" />
    <g
       id="g3854">
      <path
         d="m 60.519484,119.5 400.093656,0"
         id="path3301"
         style="fill:#000000;fill-opacity:1;stroke:#000000;stroke-width:1;stroke-opacity:1;display:inline" />
      <path
         d="M 60.832129,210 459.6121,210"
         id="path3305"
         style="fill:#000000;fill-opacity:1;stroke:#000000;stroke-width:2;stroke-opacity:1;display:inline" />
      <path
         d="m 60.561862,299.5 399.362888,0"
         id="path3309"
         style="fill:#000000;fill-opacity:1;stroke:#000000;stroke-width:1;stroke-opacity:1;display:inline" />
      <path
         d="m 60.581288,389.5 399.405142,0"
         id="path3311"
         style="fill:#000000;fill-opacity:1;stroke:#000000;stroke-width:1;stroke-opacity:1;display:inline" />
      <path
         d="m 349.5,410.5 0,-399.997045"
         id="path3339"
         style="fill:#000000;fill-opacity:1;stroke:#000000;stroke-width:1;stroke-opacity:1;display:inline" />
      <path
         d="m 459.92475,29.500008 -399.362885,0"
         id="path8393"
         style="fill:#000000;fill-opacity:1;stroke:#000000;stroke-width:1;stroke-opacity:1;display:inline" />
      <path
         d="m 79.5,409.37669 0,-398.87678"
         id="path3335"
         style="fill:#000000;fill-opacity:1;stroke:#000000;stroke-width:0.99999964;stroke-opacity:1;display:inline" />
      <path
         d="m 60.000004,9.9949808 399.999996,0 0,400.0077792 -399.999996,0 z"
         id="rect3248"
         style="fill:none;stroke:#000000;stroke-width:1.99999988;stroke-opacity:1;display:inline" />
      <path
         d="m 169.5,409.37104 0,-398.87113"
         id="path4390"
         style="fill:#000000;fill-opacity:1;stroke:#000000;stroke-width:1;stroke-opacity:1;display:inline" />
      <path
         d="m 439.5,409.3669 0,-398.86699"
         id="path4412"
         style="fill:#000000;fill-opacity:1;stroke:#000000;stroke-width:1;stroke-opacity:1;display:inline" />
      <path
         d="m 259.99999,409.99517 0,-399.619223"
         id="path4414"
         style="fill:#000000;fill-opacity:1;stroke:#000000;stroke-width:2;stroke-opacity:1;display:inline" />
      <path
         d="m 124.5,10 0,10"
         id="path4464"
         style="fill:none;stroke:#000000;stroke-width:1;stroke-miterlimit:4;stroke-opacity:1;stroke-dasharray:none;stroke-dashoffset:0;display:inline" />
      <path
         d="m 147.5,10 0,5"
         id="path4466"
         style="fill:none;stroke:#000000;stroke-width:1;stroke-miterlimit:4;stroke-opacity:1;stroke-dasharray:none;stroke-dashoffset:0;display:inline" />
      <path
         d="m 102.5,10 0,5"
         id="path4468"
         style="fill:none;stroke:#000000;stroke-width:1;stroke-miterlimit:4;stroke-opacity:1;stroke-dasharray:none;stroke-dashoffset:0;display:inline" />
      <path
         d="m 60.5,344.5 10,0"
         id="path19702"
         style="fill:none;stroke:#000000;stroke-width:1;stroke-miterlimit:4;stroke-opacity:1;stroke-dasharray:none;stroke-dashoffset:0;display:inline" />
      <path
         d="m 60.5,321.5 5,0"
         id="path19704"
         style="fill:none;stroke:#000000;stroke-width:1;stroke-miterlimit:4;stroke-opacity:1;stroke-dasharray:none;stroke-dashoffset:0;display:inline" />
      <path
         d="m 60.5,366.5 5,0"
         id="path19706"
         style="fill:none;stroke:#000000;stroke-width:1;stroke-miterlimit:4;stroke-opacity:1;stroke-dasharray:none;stroke-dashoffset:0;display:inline" />
      <g
         id="text3259"
         style="font-size:14px;font-style:italic;font-variant:normal;font-weight:normal;font-stretch:normal;text-align:end;line-height:125%;writing-mode:lr-tb;text-anchor:end;fill:#000000;fill-opacity:1;stroke:none;display:inline;font-family:DejaVu Serif">
        <path
           d="m 34.80957,122.2793 c 0.200519,0.76562 0.649412,1.14843 1.34668,1.14843 0.697261,0 1.291987,-0.38281 1.78418,-1.14843 0.496739,-0.76563 0.895501,-1.9209 1.196289,-3.46582 0.300774,-1.54948 0.350904,-2.70703 0.15039,-3.47266 -0.19597,-0.76562 -0.642584,-1.14843 -1.339843,-1.14844 -0.697271,1e-5 -1.294275,0.38282 -1.791016,1.14844 -0.492191,0.76563 -0.888675,1.92318 -1.189453,3.47266 -0.300783,1.54492 -0.353192,2.70019 -0.157227,3.46582 m 1.209961,1.82519 c -1.107424,0 -1.882163,-0.46484 -2.324219,-1.39453 -0.4375,-0.92968 -0.494466,-2.22851 -0.170898,-3.89648 0.323567,-1.67252 0.886391,-2.97363 1.688477,-3.90332 0.806637,-0.92968 1.763667,-1.39452 2.871093,-1.39453 1.111973,1e-5 1.886712,0.46485 2.324219,1.39453 0.437492,0.92969 0.494458,2.2308 0.170899,3.90332 -0.323576,1.66797 -0.886401,2.9668 -1.688477,3.89648 -0.802089,0.92969 -1.759119,1.39453 -2.871094,1.39453"
           id="path3752" />
        <path
           d="m 42.964844,123.84473 c -0.13672,-0.17774 -0.180015,-0.39421 -0.129883,-0.64942 0.05013,-0.2552 0.177733,-0.47168 0.382812,-0.64941 0.209634,-0.17773 0.444334,-0.2666 0.704102,-0.2666 0.250648,0 0.446612,0.0889 0.587891,0.2666 0.14583,0.17773 0.193681,0.39421 0.143554,0.64941 -0.05013,0.25065 -0.182294,0.46485 -0.396484,0.64258 -0.209638,0.17773 -0.439781,0.2666 -0.69043,0.2666 -0.259767,0 -0.460288,-0.0866 -0.601562,-0.25976"
           id="path3754" />
        <path
           d="m 54.025391,113.7002 -0.21875,1.12109 -4.675782,0 -0.567382,2.92578 c 0.268877,-0.16406 0.569658,-0.2871 0.902343,-0.36914 0.332679,-0.082 0.694983,-0.12304 1.086914,-0.12305 1.102859,1e-5 1.914056,0.30535 2.433594,0.91602 0.519524,0.61068 0.67675,1.44466 0.47168,2.50195 -0.209643,1.08008 -0.697273,1.92318 -1.462891,2.5293 -0.761073,0.60156 -1.724939,0.90234 -2.891601,0.90234 -0.469404,0 -0.938805,-0.057 -1.408204,-0.1709 -0.469402,-0.11393 -0.938802,-0.28711 -1.408203,-0.51953 l 0.382813,-1.98242 0.772461,0 c -0.08659,0.64714 0.02278,1.1416 0.328125,1.4834 0.305336,0.3418 0.792966,0.51269 1.46289,0.51269 0.720049,0 1.319332,-0.23697 1.797852,-0.71093 0.483067,-0.47396 0.811192,-1.15527 0.984375,-2.04395 0.168614,-0.88411 0.10709,-1.56087 -0.18457,-2.03027 -0.291673,-0.47395 -0.79981,-0.71093 -1.524414,-0.71094 -0.410161,1e-5 -0.786137,0.0729 -1.12793,0.21875 -0.3418,0.14584 -0.663089,0.37143 -0.963867,0.67676 l -0.587891,0 0.998047,-5.12695 5.400391,0"
           id="path3756" />
      </g>
      <g
         id="text3267"
         style="font-size:14px;font-style:italic;font-variant:normal;font-weight:normal;font-stretch:normal;text-align:end;line-height:125%;writing-mode:lr-tb;text-anchor:end;fill:#000000;fill-opacity:1;stroke:none;display:inline;font-family:DejaVu Serif">
        <path
           d="m 34.80957,212.2793 c 0.200519,0.76562 0.649412,1.14843 1.34668,1.14843 0.697261,0 1.291987,-0.38281 1.78418,-1.14843 0.496739,-0.76563 0.895501,-1.9209 1.196289,-3.46582 0.300774,-1.54948 0.350904,-2.70703 0.15039,-3.47266 -0.19597,-0.76562 -0.642584,-1.14843 -1.339843,-1.14844 -0.697271,10e-6 -1.294275,0.38282 -1.791016,1.14844 -0.492191,0.76563 -0.888675,1.92318 -1.189453,3.47266 -0.300783,1.54492 -0.353192,2.70019 -0.157227,3.46582 m 1.209961,1.82519 c -1.107424,0 -1.882163,-0.46484 -2.324219,-1.39453 -0.4375,-0.92968 -0.494466,-2.22851 -0.170898,-3.89648 0.323567,-1.67252 0.886391,-2.97363 1.688477,-3.90332 0.806637,-0.92968 1.763667,-1.39452 2.871093,-1.39454 1.111973,2e-5 1.886712,0.46486 2.324219,1.39454 0.437492,0.92969 0.494458,2.2308 0.170899,3.90332 -0.323576,1.66797 -0.886401,2.9668 -1.688477,3.89648 -0.802089,0.92969 -1.759119,1.39453 -2.871094,1.39453"
           id="path3759" />
        <path
           d="m 42.964844,213.84473 c -0.13672,-0.17774 -0.180015,-0.39421 -0.129883,-0.64942 0.05013,-0.2552 0.177733,-0.47168 0.382812,-0.64941 0.209634,-0.17773 0.444334,-0.2666 0.704102,-0.2666 0.250648,0 0.446612,0.0889 0.587891,0.2666 0.14583,0.17773 0.193681,0.39421 0.143554,0.64941 -0.05013,0.25065 -0.182294,0.46485 -0.396484,0.64258 -0.209638,0.17773 -0.439781,0.2666 -0.69043,0.2666 -0.259767,0 -0.460288,-0.0866 -0.601562,-0.25976"
           id="path3761" />
        <path
           d="m 48.180664,212.2793 c 0.200518,0.76562 0.649411,1.14843 1.34668,1.14843 0.697261,0 1.291987,-0.38281 1.784179,-1.14843 0.496739,-0.76563 0.895502,-1.9209 1.196289,-3.46582 0.300775,-1.54948 0.350905,-2.70703 0.150391,-3.47266 -0.19597,-0.76562 -0.642584,-1.14843 -1.339844,-1.14844 -0.69727,10e-6 -1.294275,0.38282 -1.791015,1.14844 -0.492191,0.76563 -0.888675,1.92318 -1.189453,3.47266 -0.300784,1.54492 -0.353192,2.70019 -0.157227,3.46582 m 1.209961,1.82519 c -1.107424,0 -1.882163,-0.46484 -2.324219,-1.39453 -0.4375,-0.92968 -0.494466,-2.22851 -0.170898,-3.89648 0.323566,-1.67252 0.886391,-2.97363 1.688476,-3.90332 0.806638,-0.92968 1.763668,-1.39452 2.871094,-1.39454 1.111973,2e-5 1.886712,0.46486 2.324219,1.39454 0.437492,0.92969 0.494458,2.2308 0.170898,3.90332 -0.323575,1.66797 -0.8864,2.9668 -1.688476,3.89648 -0.802089,0.92969 -1.759119,1.39453 -2.871094,1.39453"
           id="path3763" />
      </g>
      <g
         id="text3291"
         style="font-size:14px;font-style:italic;font-variant:normal;font-weight:normal;font-stretch:normal;text-align:end;line-height:125%;writing-mode:lr-tb;text-anchor:end;fill:#000000;fill-opacity:1;stroke:none;display:inline;font-family:DejaVu Serif">
        <path
           d="m 22.354492,298.96387 8.763672,0 0,1.10742 -8.763672,0 0,-1.10742"
           id="path3766" />
        <path
           d="m 34.80957,302.2793 c 0.200519,0.76562 0.649412,1.14843 1.34668,1.14843 0.697261,0 1.291987,-0.38281 1.78418,-1.14843 0.496739,-0.76563 0.895501,-1.9209 1.196289,-3.46582 0.300774,-1.54948 0.350904,-2.70703 0.15039,-3.47266 -0.19597,-0.76562 -0.642584,-1.14843 -1.339843,-1.14844 -0.697271,10e-6 -1.294275,0.38282 -1.791016,1.14844 -0.492191,0.76563 -0.888675,1.92318 -1.189453,3.47266 -0.300783,1.54492 -0.353192,2.70019 -0.157227,3.46582 m 1.209961,1.82519 c -1.107424,0 -1.882163,-0.46484 -2.324219,-1.39453 -0.4375,-0.92968 -0.494466,-2.22851 -0.170898,-3.89648 0.323567,-1.67252 0.886391,-2.97363 1.688477,-3.90332 0.806637,-0.92968 1.763667,-1.39452 2.871093,-1.39454 1.111973,2e-5 1.886712,0.46486 2.324219,1.39454 0.437492,0.92969 0.494458,2.2308 0.170899,3.90332 -0.323576,1.66797 -0.886401,2.9668 -1.688477,3.89648 -0.802089,0.92969 -1.759119,1.39453 -2.871094,1.39453"
           id="path3768" />
        <path
           d="m 42.964844,303.84473 c -0.13672,-0.17774 -0.180015,-0.39421 -0.129883,-0.64942 0.05013,-0.2552 0.177733,-0.47168 0.382812,-0.64941 0.209634,-0.17773 0.444334,-0.2666 0.704102,-0.2666 0.250648,0 0.446612,0.0889 0.587891,0.2666 0.14583,0.17773 0.193681,0.39421 0.143554,0.64941 -0.05013,0.25065 -0.182294,0.46485 -0.396484,0.64258 -0.209638,0.17773 -0.439781,0.2666 -0.69043,0.2666 -0.259767,0 -0.460288,-0.0866 -0.601562,-0.25976"
           id="path3770" />
        <path
           d="m 54.025391,293.7002 -0.21875,1.12109 -4.675782,0 -0.567382,2.92578 c 0.268877,-0.16406 0.569658,-0.2871 0.902343,-0.36914 0.332679,-0.082 0.694983,-0.12304 1.086914,-0.12305 1.102859,10e-6 1.914056,0.30535 2.433594,0.91602 0.519524,0.61068 0.67675,1.44466 0.47168,2.50195 -0.209643,1.08008 -0.697273,1.92318 -1.462891,2.5293 -0.761073,0.60156 -1.724939,0.90234 -2.891601,0.90234 -0.469404,0 -0.938805,-0.057 -1.408204,-0.1709 -0.469402,-0.11393 -0.938802,-0.28711 -1.408203,-0.51953 l 0.382813,-1.98242 0.772461,0 c -0.08659,0.64714 0.02278,1.1416 0.328125,1.4834 0.305336,0.3418 0.792966,0.51269 1.46289,0.51269 0.720049,0 1.319332,-0.23697 1.797852,-0.71093 0.483067,-0.47396 0.811192,-1.15527 0.984375,-2.04395 0.168614,-0.88411 0.10709,-1.56087 -0.18457,-2.03027 -0.291673,-0.47395 -0.79981,-0.71093 -1.524414,-0.71094 -0.410161,10e-6 -0.786137,0.0729 -1.12793,0.21875 -0.3418,0.14584 -0.663089,0.37143 -0.963867,0.67676 l -0.587891,0 0.998047,-5.12695 5.400391,0"
           id="path3772" />
      </g>
      <g
         id="text3295"
         style="font-size:14px;font-style:italic;font-variant:normal;font-weight:normal;font-stretch:normal;text-align:end;line-height:125%;writing-mode:lr-tb;text-anchor:end;fill:#000000;fill-opacity:1;stroke:none;display:inline;font-family:DejaVu Serif">
        <path
           d="m 22.354492,388.96387 8.763672,0 0,1.10742 -8.763672,0 0,-1.10742"
           id="path3775" />
        <path
           d="m 33.579102,393.90625 0.143554,-0.72461 1.777344,0 1.647461,-8.49023 -2.317383,1.333 0.177734,-0.8955 2.802735,-1.61329 0.943359,0 -1.879883,9.66602 1.777344,0 -0.143555,0.72461 -4.92871,0"
           id="path3777" />
        <path
           d="m 42.964844,393.84473 c -0.13672,-0.17774 -0.180015,-0.39421 -0.129883,-0.64942 0.05013,-0.2552 0.177733,-0.47168 0.382812,-0.64941 0.209634,-0.17773 0.444334,-0.2666 0.704102,-0.2666 0.250648,0 0.446612,0.0889 0.587891,0.2666 0.14583,0.17773 0.193681,0.39421 0.143554,0.64941 -0.05013,0.25065 -0.182294,0.46485 -0.396484,0.64258 -0.209638,0.17773 -0.439781,0.2666 -0.69043,0.2666 -0.259767,0 -0.460288,-0.0866 -0.601562,-0.25976"
           id="path3779" />
        <path
           d="m 48.180664,392.2793 c 0.200518,0.76562 0.649411,1.14843 1.34668,1.14843 0.697261,0 1.291987,-0.38281 1.784179,-1.14843 0.496739,-0.76563 0.895502,-1.9209 1.196289,-3.46582 0.300775,-1.54948 0.350905,-2.70703 0.150391,-3.47266 -0.19597,-0.76562 -0.642584,-1.14843 -1.339844,-1.14844 -0.69727,10e-6 -1.294275,0.38282 -1.791015,1.14844 -0.492191,0.76563 -0.888675,1.92318 -1.189453,3.47266 -0.300784,1.54492 -0.353192,2.70019 -0.157227,3.46582 m 1.209961,1.82519 c -1.107424,0 -1.882163,-0.46484 -2.324219,-1.39453 -0.4375,-0.92968 -0.494466,-2.22851 -0.170898,-3.89648 0.323566,-1.67252 0.886391,-2.97363 1.688476,-3.90332 0.806638,-0.92968 1.763668,-1.39452 2.871094,-1.39454 1.111973,2e-5 1.886712,0.46486 2.324219,1.39454 0.437492,0.92969 0.494458,2.2308 0.170898,3.90332 -0.323575,1.66797 -0.8864,2.9668 -1.688476,3.89648 -0.802089,0.92969 -1.759119,1.39453 -2.871094,1.39453"
           id="path3781" />
      </g>
      <g
         id="text7794"
         style="font-size:24px;font-style:italic;font-variant:normal;font-weight:normal;font-stretch:normal;text-align:center;line-height:125%;writing-mode:lr-tb;text-anchor:middle;fill:#000000;fill-opacity:1;stroke:none;display:inline;font-family:DejaVu Serif">
        <path
           d="m 255.03516,453 -1.46485,0 5.4961,-5.97656 -2.76563,-5.22657 -1.53516,0 0.23438,-1.2539 3.16406,0 2.58985,4.85156 4.46484,-4.85156 1.46484,0 -5.39062,5.85937 2.84765,5.35547 1.62891,0 -0.23437,1.24219 -3.26954,0 -2.64843,-4.96875 L 255.03516,453"
           id="path3784" />
      </g>
      <g
         id="text8399"
         style="font-size:14px;font-style:italic;font-variant:normal;font-weight:normal;font-stretch:normal;text-align:end;line-height:125%;writing-mode:lr-tb;text-anchor:end;fill:#000000;fill-opacity:1;stroke:none;display:inline;font-family:DejaVu Serif">
        <path
           d="m 33.579102,33.90625 0.143554,-0.724609 1.777344,0 1.647461,-8.490235 -2.317383,1.333008 0.177734,-0.895508 2.802735,-1.613281 0.943359,0 -1.879883,9.666016 1.777344,0 -0.143555,0.724609 -4.92871,0"
           id="path3787" />
        <path
           d="m 42.964844,33.844727 c -0.13672,-0.177735 -0.180015,-0.394206 -0.129883,-0.649415 0.05013,-0.255207 0.177733,-0.471678 0.382812,-0.649414 0.209634,-0.177732 0.444334,-0.266599 0.704102,-0.266601 0.250648,2e-6 0.446612,0.08887 0.587891,0.266601 0.14583,0.177736 0.193681,0.394207 0.143554,0.649414 -0.05013,0.250652 -0.182294,0.464844 -0.396484,0.642579 -0.209638,0.177734 -0.439781,0.266601 -0.69043,0.266601 -0.259767,0 -0.460288,-0.08659 -0.601562,-0.259765"
           id="path3789" />
        <path
           d="m 48.180664,32.279297 c 0.200518,0.765626 0.649411,1.148438 1.34668,1.148437 0.697261,10e-7 1.291987,-0.382811 1.784179,-1.148437 0.496739,-0.765623 0.895502,-1.920895 1.196289,-3.46582 0.300775,-1.549473 0.350905,-2.707024 0.150391,-3.472657 -0.19597,-0.765615 -0.642584,-1.148427 -1.339844,-1.148437 -0.69727,10e-6 -1.294275,0.382822 -1.791015,1.148437 -0.492191,0.765633 -0.888675,1.923184 -1.189453,3.472657 -0.300784,1.544925 -0.353192,2.700197 -0.157227,3.46582 m 1.209961,1.825195 c -1.107424,0 -1.882163,-0.464843 -2.324219,-1.394531 -0.4375,-0.929685 -0.494466,-2.228512 -0.170898,-3.896484 0.323566,-1.67252 0.886391,-2.973625 1.688476,-3.903321 0.806638,-0.929677 1.763668,-1.394521 2.871094,-1.394531 1.111973,10e-6 1.886712,0.464854 2.324219,1.394531 0.437492,0.929696 0.494458,2.230801 0.170898,3.903321 -0.323575,1.667972 -0.8864,2.966799 -1.688476,3.896484 -0.802089,0.929688 -1.759119,1.394531 -2.871094,1.394531"
           id="path3791" />
      </g>
      <g
         id="text19732"
         style="font-size:14px;font-style:italic;font-variant:normal;font-weight:normal;font-stretch:normal;text-align:center;line-height:125%;writing-mode:lr-tb;text-anchor:middle;fill:#000000;fill-opacity:1;stroke:none;font-family:DejaVu Serif">
        <path
           d="m 63.323242,422.44824 8.763672,0 0,1.10742 -8.763672,0 0,-1.10742"
           id="path3794" />
        <path
           d="m 74.547852,427.39062 0.143554,-0.7246 1.777344,0 1.647461,-8.49024 -2.317383,1.33301 0.177734,-0.89551 2.802735,-1.61328 0.943359,0 -1.879883,9.66602 1.777344,0 -0.143555,0.7246 -4.92871,0"
           id="path3796" />
        <path
           d="m 83.933594,427.3291 c -0.13672,-0.17773 -0.180015,-0.3942 -0.129883,-0.64941 0.05013,-0.25521 0.177733,-0.47168 0.382812,-0.64942 0.209634,-0.17773 0.444334,-0.2666 0.704102,-0.2666 0.250648,0 0.446612,0.0889 0.587891,0.2666 0.14583,0.17774 0.193681,0.39421 0.143554,0.64942 -0.05013,0.25065 -0.182294,0.46484 -0.396484,0.64258 -0.209638,0.17773 -0.439781,0.2666 -0.69043,0.2666 -0.259767,0 -0.460288,-0.0866 -0.601562,-0.25977"
           id="path3798" />
        <path
           d="m 89.149414,425.76367 c 0.200518,0.76563 0.649411,1.14844 1.34668,1.14844 0.697261,0 1.291987,-0.38281 1.784179,-1.14844 0.496739,-0.76562 0.895502,-1.92089 1.196289,-3.46582 0.300775,-1.54947 0.350905,-2.70702 0.150391,-3.47265 -0.19597,-0.76562 -0.642584,-1.14843 -1.339844,-1.14844 -0.69727,10e-6 -1.294275,0.38282 -1.791015,1.14844 -0.492191,0.76563 -0.888675,1.92318 -1.189453,3.47265 -0.300784,1.54493 -0.353192,2.7002 -0.157227,3.46582 m 1.209961,1.8252 c -1.107424,0 -1.882163,-0.46485 -2.324219,-1.39453 -0.4375,-0.92969 -0.494466,-2.22852 -0.170898,-3.89649 0.323566,-1.67252 0.886391,-2.97362 1.688476,-3.90332 0.806638,-0.92968 1.763668,-1.39452 2.871094,-1.39453 1.111973,10e-6 1.886712,0.46485 2.324219,1.39453 0.437492,0.9297 0.494458,2.2308 0.170898,3.90332 -0.323575,1.66797 -0.8864,2.9668 -1.688476,3.89649 -0.802089,0.92968 -1.759119,1.39453 -2.871094,1.39453"
           id="path3800" />
      </g>
      <g
         id="text19736"
         style="font-size:14px;font-style:italic;font-variant:normal;font-weight:normal;font-stretch:normal;text-align:center;line-height:125%;writing-mode:lr-tb;text-anchor:middle;fill:#000000;fill-opacity:1;stroke:none;font-family:DejaVu Serif">
        <path
           d="m 153.45532,422.44824 8.76367,0 0,1.10742 -8.76367,0 0,-1.10742"
           id="path3803" />
        <path
           d="m 165.9104,425.76367 c 0.20052,0.76563 0.64941,1.14844 1.34668,1.14844 0.69726,0 1.29199,-0.38281 1.78418,-1.14844 0.49674,-0.76562 0.8955,-1.92089 1.19629,-3.46582 0.30077,-1.54947 0.3509,-2.70702 0.15039,-3.47265 -0.19597,-0.76562 -0.64258,-1.14843 -1.33984,-1.14844 -0.69727,10e-6 -1.29428,0.38282 -1.79102,1.14844 -0.49219,0.76563 -0.88867,1.92318 -1.18945,3.47265 -0.30079,1.54493 -0.3532,2.7002 -0.15723,3.46582 m 1.20996,1.8252 c -1.10742,0 -1.88216,-0.46485 -2.32422,-1.39453 -0.4375,-0.92969 -0.49446,-2.22852 -0.1709,-3.89649 0.32357,-1.67252 0.8864,-2.97362 1.68848,-3.90332 0.80664,-0.92968 1.76367,-1.39452 2.87109,-1.39453 1.11198,10e-6 1.88672,0.46485 2.32422,1.39453 0.43749,0.9297 0.49446,2.2308 0.1709,3.90332 -0.32357,1.66797 -0.8864,2.9668 -1.68847,3.89649 -0.80209,0.92968 -1.75912,1.39453 -2.8711,1.39453"
           id="path3805" />
        <path
           d="m 174.06567,427.3291 c -0.13672,-0.17773 -0.18001,-0.3942 -0.12988,-0.64941 0.0501,-0.25521 0.17773,-0.47168 0.38281,-0.64942 0.20964,-0.17773 0.44434,-0.2666 0.70411,-0.2666 0.25064,0 0.44661,0.0889 0.58789,0.2666 0.14583,0.17774 0.19368,0.39421 0.14355,0.64942 -0.0501,0.25065 -0.18229,0.46484 -0.39648,0.64258 -0.20964,0.17773 -0.43978,0.2666 -0.69043,0.2666 -0.25977,0 -0.46029,-0.0866 -0.60157,-0.25977"
           id="path3807" />
        <path
           d="m 185.12622,417.18457 -0.21875,1.12109 -4.67578,0 -0.56738,2.92579 c 0.26887,-0.16406 0.56965,-0.28711 0.90234,-0.36915 0.33268,-0.082 0.69498,-0.12304 1.08691,-0.12304 1.10286,0 1.91406,0.30534 2.4336,0.91601 0.51952,0.61069 0.67675,1.44467 0.47168,2.50196 -0.20964,1.08008 -0.69727,1.92317 -1.46289,2.52929 -0.76108,0.60157 -1.72494,0.90235 -2.8916,0.90235 -0.46941,0 -0.93881,-0.057 -1.40821,-0.1709 -0.4694,-0.11393 -0.9388,-0.28711 -1.4082,-0.51953 l 0.38281,-1.98242 0.77246,0 c -0.0866,0.64713 0.0228,1.1416 0.32813,1.48339 0.30533,0.3418 0.79296,0.5127 1.46289,0.5127 0.72005,0 1.31933,-0.23698 1.79785,-0.71094 0.48307,-0.47395 0.81119,-1.15527 0.98438,-2.04394 0.16861,-0.88411 0.10709,-1.56087 -0.18458,-2.03028 -0.29167,-0.47395 -0.7998,-0.71093 -1.52441,-0.71093 -0.41016,0 -0.78614,0.0729 -1.12793,0.21875 -0.3418,0.14583 -0.66309,0.37142 -0.96387,0.67675 l -0.58789,0 0.99805,-5.12695 5.40039,0"
           id="path3809" />
      </g>
      <g
         id="text19740"
         style="font-size:14px;font-style:italic;font-variant:normal;font-weight:normal;font-stretch:normal;text-align:center;line-height:125%;writing-mode:lr-tb;text-anchor:middle;fill:#000000;fill-opacity:1;stroke:none;font-family:DejaVu Serif">
        <path
           d="m 250.29004,425.76367 c 0.20052,0.76563 0.64941,1.14844 1.34668,1.14844 0.69726,0 1.29199,-0.38281 1.78418,-1.14844 0.49674,-0.76562 0.8955,-1.92089 1.19629,-3.46582 0.30077,-1.54947 0.3509,-2.70702 0.15039,-3.47265 -0.19597,-0.76562 -0.64259,-1.14843 -1.33985,-1.14844 -0.69727,10e-6 -1.29427,0.38282 -1.79101,1.14844 -0.49219,0.76563 -0.88868,1.92318 -1.18945,3.47265 -0.30079,1.54493 -0.3532,2.7002 -0.15723,3.46582 m 1.20996,1.8252 c -1.10742,0 -1.88216,-0.46485 -2.32422,-1.39453 -0.4375,-0.92969 -0.49447,-2.22852 -0.1709,-3.89649 0.32357,-1.67252 0.88639,-2.97362 1.68848,-3.90332 0.80664,-0.92968 1.76367,-1.39452 2.87109,-1.39453 1.11198,10e-6 1.88671,0.46485 2.32422,1.39453 0.43749,0.9297 0.49446,2.2308 0.1709,3.90332 -0.32358,1.66797 -0.8864,2.9668 -1.68848,3.89649 -0.80209,0.92968 -1.75912,1.39453 -2.87109,1.39453"
           id="path3812" />
        <path
           d="m 258.44531,427.3291 c -0.13672,-0.17773 -0.18001,-0.3942 -0.12988,-0.64941 0.0501,-0.25521 0.17773,-0.47168 0.38281,-0.64942 0.20964,-0.17773 0.44434,-0.2666 0.7041,-0.2666 0.25065,0 0.44662,0.0889 0.58789,0.2666 0.14583,0.17774 0.19369,0.39421 0.14356,0.64942 -0.0501,0.25065 -0.1823,0.46484 -0.39649,0.64258 -0.20963,0.17773 -0.43978,0.2666 -0.69043,0.2666 -0.25976,0 -0.46028,-0.0866 -0.60156,-0.25977"
           id="path3814" />
        <path
           d="m 263.66113,425.76367 c 0.20052,0.76563 0.64941,1.14844 1.34668,1.14844 0.69726,0 1.29199,-0.38281 1.78418,-1.14844 0.49674,-0.76562 0.8955,-1.92089 1.19629,-3.46582 0.30078,-1.54947 0.35091,-2.70702 0.15039,-3.47265 -0.19597,-0.76562 -0.64258,-1.14843 -1.33984,-1.14844 -0.69727,10e-6 -1.29428,0.38282 -1.79102,1.14844 -0.49219,0.76563 -0.88867,1.92318 -1.18945,3.47265 -0.30078,1.54493 -0.35319,2.7002 -0.15723,3.46582 m 1.20996,1.8252 c -1.10742,0 -1.88216,-0.46485 -2.32422,-1.39453 -0.4375,-0.92969 -0.49446,-2.22852 -0.17089,-3.89649 0.32356,-1.67252 0.88639,-2.97362 1.68847,-3.90332 0.80664,-0.92968 1.76367,-1.39452 2.8711,-1.39453 1.11197,10e-6 1.88671,0.46485 2.32422,1.39453 0.43749,0.9297 0.49445,2.2308 0.17089,3.90332 -0.32357,1.66797 -0.8864,2.9668 -1.68847,3.89649 -0.80209,0.92968 -1.75912,1.39453 -2.8711,1.39453"
           id="path3816" />
      </g>
      <g
         id="text19744"
         style="font-size:14px;font-style:italic;font-variant:normal;font-weight:normal;font-stretch:normal;text-align:center;line-height:125%;writing-mode:lr-tb;text-anchor:middle;fill:#000000;fill-opacity:1;stroke:none;font-family:DejaVu Serif">
        <path
           d="m 340.42212,425.76367 c 0.20052,0.76563 0.64941,1.14844 1.34668,1.14844 0.69726,0 1.29199,-0.38281 1.78418,-1.14844 0.49674,-0.76562 0.8955,-1.92089 1.19629,-3.46582 0.30077,-1.54947 0.3509,-2.70702 0.15039,-3.47265 -0.19597,-0.76562 -0.64259,-1.14843 -1.33985,-1.14844 -0.69727,10e-6 -1.29427,0.38282 -1.79101,1.14844 -0.49219,0.76563 -0.88868,1.92318 -1.18945,3.47265 -0.30079,1.54493 -0.3532,2.7002 -0.15723,3.46582 m 1.20996,1.8252 c -1.10742,0 -1.88216,-0.46485 -2.32422,-1.39453 -0.4375,-0.92969 -0.49447,-2.22852 -0.1709,-3.89649 0.32357,-1.67252 0.88639,-2.97362 1.68848,-3.90332 0.80664,-0.92968 1.76367,-1.39452 2.87109,-1.39453 1.11198,10e-6 1.88671,0.46485 2.32422,1.39453 0.43749,0.9297 0.49446,2.2308 0.1709,3.90332 -0.32357,1.66797 -0.8864,2.9668 -1.68848,3.89649 -0.80208,0.92968 -1.75912,1.39453 -2.87109,1.39453"
           id="path3819" />
        <path
           d="m 348.57739,427.3291 c -0.13672,-0.17773 -0.18001,-0.3942 -0.12988,-0.64941 0.0501,-0.25521 0.17773,-0.47168 0.38281,-0.64942 0.20964,-0.17773 0.44434,-0.2666 0.7041,-0.2666 0.25065,0 0.44662,0.0889 0.58789,0.2666 0.14583,0.17774 0.19369,0.39421 0.14356,0.64942 -0.0501,0.25065 -0.1823,0.46484 -0.39649,0.64258 -0.20963,0.17773 -0.43978,0.2666 -0.69042,0.2666 -0.25977,0 -0.46029,-0.0866 -0.60157,-0.25977"
           id="path3821" />
        <path
           d="m 359.63794,417.18457 -0.21875,1.12109 -4.67578,0 -0.56738,2.92579 c 0.26887,-0.16406 0.56965,-0.28711 0.90234,-0.36915 0.33268,-0.082 0.69498,-0.12304 1.08691,-0.12304 1.10286,0 1.91406,0.30534 2.4336,0.91601 0.51952,0.61069 0.67675,1.44467 0.47168,2.50196 -0.20965,1.08008 -0.69728,1.92317 -1.46289,2.52929 -0.76108,0.60157 -1.72494,0.90235 -2.89161,0.90235 -0.4694,0 -0.9388,-0.057 -1.4082,-0.1709 -0.4694,-0.11393 -0.9388,-0.28711 -1.4082,-0.51953 l 0.38281,-1.98242 0.77246,0 c -0.0866,0.64713 0.0228,1.1416 0.32813,1.48339 0.30533,0.3418 0.79296,0.5127 1.46289,0.5127 0.72005,0 1.31933,-0.23698 1.79785,-0.71094 0.48307,-0.47395 0.81119,-1.15527 0.98437,-2.04394 0.16862,-0.88411 0.10709,-1.56087 -0.18457,-2.03028 -0.29167,-0.47395 -0.79981,-0.71093 -1.52441,-0.71093 -0.41016,0 -0.78614,0.0729 -1.12793,0.21875 -0.3418,0.14583 -0.66309,0.37142 -0.96387,0.67675 l -0.58789,0 0.99805,-5.12695 5.40039,0"
           id="path3823" />
      </g>
      <g
         id="text19748"
         style="font-size:14px;font-style:italic;font-variant:normal;font-weight:normal;font-stretch:normal;text-align:center;line-height:125%;writing-mode:lr-tb;text-anchor:middle;fill:#000000;fill-opacity:1;stroke:none;font-family:DejaVu Serif">
        <path
           d="m 428.64355,427.39062 0.14356,-0.7246 1.77734,0 1.64746,-8.49024 -2.31738,1.33301 0.17774,-0.89551 L 432.875,417 l 0.94336,0 -1.87988,9.66602 1.77734,0 -0.14355,0.7246 -4.92872,0"
           id="path3826" />
        <path
           d="m 438.0293,427.3291 c -0.13672,-0.17773 -0.18002,-0.3942 -0.12989,-0.64941 0.0501,-0.25521 0.17774,-0.47168 0.38282,-0.64942 0.20963,-0.17773 0.44433,-0.2666 0.7041,-0.2666 0.25065,0 0.44661,0.0889 0.58789,0.2666 0.14583,0.17774 0.19368,0.39421 0.14355,0.64942 -0.0501,0.25065 -0.18229,0.46484 -0.39648,0.64258 -0.20964,0.17773 -0.43978,0.2666 -0.69043,0.2666 -0.25977,0 -0.46029,-0.0866 -0.60156,-0.25977"
           id="path3828" />
        <path
           d="m 443.24512,425.76367 c 0.20052,0.76563 0.64941,1.14844 1.34668,1.14844 0.69726,0 1.29198,-0.38281 1.78418,-1.14844 0.49674,-0.76562 0.8955,-1.92089 1.19629,-3.46582 0.30077,-1.54947 0.3509,-2.70702 0.15039,-3.47265 -0.19597,-0.76562 -0.64259,-1.14843 -1.33985,-1.14844 -0.69727,10e-6 -1.29427,0.38282 -1.79101,1.14844 -0.49219,0.76563 -0.88868,1.92318 -1.18946,3.47265 -0.30078,1.54493 -0.35319,2.7002 -0.15722,3.46582 m 1.20996,1.8252 c -1.10743,0 -1.88216,-0.46485 -2.32422,-1.39453 -0.4375,-0.92969 -0.49447,-2.22852 -0.1709,-3.89649 0.32357,-1.67252 0.88639,-2.97362 1.68848,-3.90332 0.80663,-0.92968 1.76366,-1.39452 2.87109,-1.39453 1.11197,10e-6 1.88671,0.46485 2.32422,1.39453 0.43749,0.9297 0.49446,2.2308 0.1709,3.90332 -0.32358,1.66797 -0.8864,2.9668 -1.68848,3.89649 -0.80209,0.92968 -1.75912,1.39453 -2.87109,1.39453"
           id="path3830" />
      </g>
      <g
         transform="matrix(0,-1,1,0,0,0)"
         id="text19752"
         style="font-size:24px;font-style:italic;font-variant:normal;font-weight:normal;font-stretch:normal;text-align:center;line-height:125%;writing-mode:lr-tb;text-anchor:middle;fill:#000000;fill-opacity:1;stroke:none;display:inline;font-family:DejaVu Serif">
        <path
           d="m -203.09375,5.0039062 c -0.77345,4.4687579 -1.83986,7.8828168 -3.19922,10.2421878 -1.99219,3.460936 -3.78907,5.710934 -5.39062,6.75 -0.71095,0.460932 -2.00391,0.691401 -3.87891,0.691406 -0.36719,-5e-6 -0.73828,-0.03126 -1.11328,-0.09375 -0.36719,-0.06251 -0.73828,-0.152349 -1.11328,-0.269531 l 0.46875,-2.378907 1.10156,0 c -0.0156,0.124998 -0.0234,0.246091 -0.0234,0.363282 0,0.328121 0.0703,0.585934 0.21094,0.773437 0.19531,0.265621 0.54687,0.398434 1.05469,0.398438 1.37499,-4e-6 2.66015,-0.59766 3.85547,-1.792969 l -2.94141,-13.5351563 -1.41797,0 0.2461,-1.2539062 3.22265,0 2.76563,12.3632815 c 1.2578,-1.882811 2.03905,-3.210934 2.34375,-3.984375 0.98436,-2.429681 1.5742,-4.7695227 1.76953,-7.0195315 l -1.41797,0 0.24609,-1.2539063 3.21094,0"
           id="path3833" />
      </g>
      <path
         d="m 159.34225,318.47354 c 1.96225,5.77374 -0.92788,12.67841 -6.39715,15.36688 -5.27032,2.80297 -12.39945,1.44698 -16.12537,-3.26891 -3.17974,-3.75483 -4.02741,-9.29535 -1.99929,-13.79528 2.09996,-4.97997 7.38785,-8.37467 12.79851,-8.13741 5.78388,0.14218 11.21607,4.29739 12.73128,9.90597 1.70616,5.9034 -0.95377,12.80604 -6.3727,15.80814 -4.93103,2.90892 -11.63155,2.46794 -16.02379,-1.25891 -4.90019,-3.86995 -6.62276,-11.10376 -4.08471,-16.79402 2.25842,-5.25293 7.79805,-8.90648 13.5392,-8.74952 6.77599,-0.0282 13.11266,5.22908 14.33308,11.89824 1.27528,6.04807 -1.63526,12.68503 -6.96751,15.82347 -5.09813,3.15722 -12.02839,2.90642 -16.87268,-0.63797 -5.01564,-3.49942 -7.55109,-10.11434 -6.14283,-16.06858 1.37381,-6.55116 7.30953,-11.81124 13.99593,-12.32644 6.68422,-0.7608 13.56458,3.20074 16.24344,9.37522 2.74807,5.77994 1.66734,13.094 -2.654,17.81754 -4.2802,4.97135 -11.60768,6.98087 -17.8146,4.8351 -5.25671,-1.6797 -9.55484,-6.00821 -11.11362,-11.31375 -2.11741,-6.6776 0.30097,-14.48931 5.85279,-18.77573 5.64374,-4.64895 14.18274,-5.16052 20.39948,-1.34839 6.20536,3.65021 9.83519,11.17125 8.72431,18.30031 -0.87441,6.67913 -5.62161,12.6471 -11.944,14.97852 -6.77997,2.6284 -14.9485,0.97687 -20.15955,-4.09832 -5.42169,-5.04835 -7.51428,-13.27949 -5.16975,-20.30668 2.20446,-7.28619 8.85501,-12.92944 16.39497,-13.94523 6.39998,-1.02537 13.14162,1.22076 17.73754,5.76491 5.57122,5.34969 7.77137,13.84559 5.56966,21.24372 -2.09943,7.7668 -8.83965,13.93212 -16.69519,15.542 -7.98816,1.85576 -16.7444,-1.18801 -22.07677,-7.36579 -6.06429,-6.70741 -7.48794,-16.9813 -3.84665,-25.20144 3.03206,-7.07951 9.59825,-12.41868 17.07746,-14.14825 8.35448,-2.04794 17.56123,0.66221 23.69043,6.64067 5.54124,5.29785 8.50401,13.08569 8.0112,20.72447 -0.4089,8.17456 -4.73946,15.99273 -11.37221,20.76827 -7.14483,5.32231 -16.80259,6.89084 -25.31744,4.3625 -9.70466,-2.71072 -17.59692,-10.68609 -20.55114,-20.27452 -3.00708,-9.43471 -1.25291,-20.16608 4.44216,-28.24626 5.76598,-8.29923 15.35266,-13.76208 25.42414,-14.54442 10.23109,-0.946 20.69365,2.81406 28.18671,9.80106 9.5611,8.68457 14.10764,22.28903 12.23387,35.00972 -1.6476,12.29423 -8.98265,23.53715 -19.25957,30.39569 -11.6552,8.04135 -26.88353,10.13632 -40.47127,6.50528 -12.11081,-3.17108 -22.87947,-10.74029 -30.401751,-20.69584 -9.918171,-12.92103 -14.137113,-29.71645 -12.730708,-45.84342 1.50003,-18.36176 9.986309,-35.74543 22.344099,-49.25411 5.69346,-6.24397 12.14984,-11.77167 19.14401,-16.50968 13.83649,-9.44487 29.61023,-15.26029 45.81439,-19.30144 23.27901,-5.76391 47.37772,-6.95568 71.26677,-7.13507 25.37154,-0.24016 50.82442,0.5655 76.09807,-2.18392 13.97497,-1.50664 27.88231,-4.0864 41.25545,-8.47369 14.14635,-4.61113 27.72101,-11.77577 39.52316,-20.88882 5.83808,-4.62675 11.40556,-9.63935 16.14214,-15.40856 4.0506,-4.98711 7.73136,-10.30528 10.75726,-15.97805 7.90222,-14.9583 11.32158,-32.54523 8.12669,-49.269299 -2.44269,-13.370296 -9.16037,-26.01422 -19.29947,-35.127538 -9.79031,-8.896287 -22.8427,-14.289431 -36.12451,-14.242085 -11.78848,-0.04382 -23.62141,4.230615 -32.35982,12.206671 -7.82113,7.022357 -13.12495,16.87065 -14.27393,27.35378 -1.48129,12.016251 2.71854,24.665761 11.39113,33.169731 7.60459,7.63211 18.63912,11.70722 29.38084,10.68227 11.23644,-0.94534 21.84798,-7.75275 27.15179,-17.74057 5.27032,-9.51432 5.26265,-21.752411 -0.21642,-31.177961 -4.85,-8.525759 -13.97421,-14.563227 -23.81612,-15.229768 -9.30661,-0.797936 -18.90509,3.209476 -24.70443,10.567538 -5.47756,6.7063 -7.46918,16.080505 -5.10132,24.418241 2.2609,8.45045 9.02124,15.57768 17.42405,18.09674 7.64153,2.46311 16.42921,0.99487 22.77609,-3.94848 6.36071,-4.75229 10.16356,-12.74745 9.60973,-20.697163 -0.3912,-8.615987 -5.96906,-16.731042 -13.89289,-20.147408 -6.46618,-2.904203 -14.27086,-2.508414 -20.40133,1.052132 -7.02292,3.89532 -11.50394,11.905139 -11.07314,19.937926 0.20294,7.966113 5.33601,15.526653 12.67399,18.638423 6.98842,3.17938 15.67645,1.94188 21.52456,-3.02175 5.43354,-4.42125 8.15284,-11.81476 6.96106,-18.708024 -1.0382,-6.671663 -5.79079,-12.58368 -12.09951,-15.00425 -6.85619,-2.839016 -15.29055,-1.135075 -20.48013,4.179268 -5.25287,5.025314 -6.95046,13.244673 -4.27306,19.976576 2.48673,6.62524 9.15991,11.34225 16.22176,11.56645 6.20107,0.31037 12.37939,-2.93645 15.67601,-8.19297 3.88654,-5.81501 3.61065,-13.955027 -0.53264,-19.563182 -3.742,-5.280081 -10.65809,-8.066132 -17.01185,-6.754894 -6.46508,1.119858 -11.88237,6.445425 -13.18373,12.865041 -1.44958,6.172588 1.20209,12.972345 6.32742,16.663325 4.59597,3.46602 11.0791,4.08107 16.2609,1.58293 5.59213,-2.46942 9.35498,-8.45219 9.12991,-14.565064 -0.004,-6.059764 -3.9277,-11.882189 -9.58237,-14.08913 -5.25021,-2.242735 -11.71175,-1.193264 -15.91972,2.689041 -4.45677,3.825459 -6.28915,10.391981 -4.31641,15.945423 1.79209,5.71658 7.36222,9.98527 13.36627,10.12055 5.90225,0.33227 11.79831,-3.30608 14.02476,-8.80258 2.0285,-4.698881 1.33223,-10.439879 -1.88479,-14.443969 -3.59128,-4.671858 -10.23211,-6.700611 -15.79131,-4.669607 -5.39121,1.848312 -9.34942,7.221904 -9.3575,12.946029 -0.13794,5.898717 3.92623,11.634657 9.61981,13.294297 5.06643,1.60836 11.02599,-0.0268 14.38612,-4.19566 3.55554,-4.15495 4.20465,-10.540407 1.38297,-15.258028 -2.84378,-5.042725 -9.23247,-7.768269 -14.81982,-6.13162 -4.82074,1.244338 -8.69198,5.449438 -9.45558,10.381272 -0.32925,1.9902 -0.21662,4.067831 0.42099,5.987156"
         id="polyline19767"
         style="fill:none;stroke:#cc0000;stroke-width:1.5;stroke-opacity:1" />
      <path
         d="m 373.5,97.375 c 0,0.62132 -0.50368,1.125 -1.125,1.125 -0.62132,0 -1.125,-0.50368 -1.125,-1.125 0,-0.62132 0.50368,-1.125 1.125,-1.125 0.62132,0 1.125,0.50368 1.125,1.125 z"
         transform="matrix(1.1111111,0,0,1.1111111,-40.999996,-11.319443)"
         id="path20340"
         style="fill:#204a87;fill-opacity:1;stroke:#204a87;stroke-width:1.3499999;stroke-miterlimit:4;stroke-opacity:1;stroke-dashoffset:0" />
      <path
         d="m 152,313.5 c 0,2.48528 -2.01472,4.5 -4.5,4.5 -2.48528,0 -4.5,-2.01472 -4.5,-4.5 0,-2.48528 2.01472,-4.5 4.5,-4.5 2.48528,0 4.5,2.01472 4.5,4.5 z"
         transform="matrix(0.2777778,0,0,0.2777778,106.28276,234.85406)"
         id="path20352"
         style="fill:#204a87;fill-opacity:1;stroke:#204a87;stroke-width:5.39999962;stroke-miterlimit:4;stroke-opacity:1;stroke-dashoffset:0" />
    </g>
  </g>
</svg>
